<svg xmlns="http://www.w3.org/2000/svg" width="40" height="40" viewBox="0 0 40 40">
  <g id="Group_682" data-name="Group 682" transform="translate(-40 -391)">
    <g id="_5ba480b9a62082b8589944714f0ae160" data-name="5ba480b9a62082b8589944714f0ae160" transform="translate(40 391)">
      <ellipse id="Ellipse_251" data-name="Ellipse 251" cx="1" cy="0.5" rx="1" ry="0.5" transform="translate(17.685 18.316)" fill="#6a8330"/>
      <path id="Path_7746" data-name="Path 7746" d="M39.333,20A.667.667,0,0,0,40,19.333V15.24a2.667,2.667,0,1,0-1.333,0v3.427H27.333v-2h-2V5.333H28.76A2.667,2.667,0,1,0,28.76,4H24.666A.667.667,0,0,0,24,4.667v12H22.666V10H21.333v6.667H20v-12A.667.667,0,0,0,19.333,4H15.24a2.667,2.667,0,1,0,0,1.333h3.427V16.666h-2v2H5.333V15.24A2.667,2.667,0,1,0,4,15.24v4.093A.667.667,0,0,0,4.667,20h12v1.333H10v1.333h6.667V24h-12A.667.667,0,0,0,4,24.666V28.76a2.667,2.667,0,1,0,1.333,0V25.333H16.666v2h2V38.666H15.24a2.667,2.667,0,1,0,0,1.333h4.093A.667.667,0,0,0,20,39.333v-12h1.333V34h1.333V27.333H24v12a.667.667,0,0,0,.667.667H28.76a2.667,2.667,0,1,0,0-1.333H25.333V27.333h2v-2H38.666V28.76a2.667,2.667,0,1,0,1.333,0V24.666A.667.667,0,0,0,39.333,24h-12V22.666H34V21.333H27.333V20ZM22.666,25.333h-4V24h4Zm-2-2.667a2,2,0,1,1,2-2A2,2,0,0,1,20.666,22.666Zm4.667,0H24v-4h1.333Z" transform="translate(-2 -2)" fill="#6a8330"/>
    </g>
    <g id="Group_679" data-name="Group 679" transform="translate(51.962 398.994)">
      <rect id="Rectangle_630" data-name="Rectangle 630" width="16.008" height="23.804" rx="3" transform="translate(0.345 0)" fill="#f2f1eb"/>
      <g id="bbc6c7bd1615d6f8aa9a182c9d5c67b1" transform="translate(0 0)">
        <path id="Path_7743" data-name="Path 7743" d="M8.465,2.488V23.316A1.489,1.489,0,0,0,9.953,24.8H23.377a1.489,1.489,0,0,0,1.488-1.488V2.488A1.489,1.489,0,0,0,23.377,1H9.953A1.489,1.489,0,0,0,8.465,2.488ZM23.873,23.316a.5.5,0,0,1-.5.5H9.953a.5.5,0,0,1-.5-.5v-2H23.873v2ZM9.46,20.327V5.477h14.4v14.85ZM23.873,2.488v2H9.457v-2a.5.5,0,0,1,.5-.5H23.377A.5.5,0,0,1,23.873,2.488Z" transform="translate(-8.465 -1)" fill="#6a8330"/>
        <path id="Path_7744" data-name="Path 7744" d="M17.159,28.346h2.35a.5.5,0,1,0,0-.992h-2.35a.5.5,0,0,0,0,.992ZM22.316,14.1a2.23,2.23,0,0,0-1.177.353,4.2,4.2,0,0,0-.82-2.8.5.5,0,0,0-.771.624,3.412,3.412,0,0,1,.583,2.419,2.349,2.349,0,0,0-1.509-.6,2.12,2.12,0,0,0-1.525.655,4.036,4.036,0,0,0-1.015,2.481,3.842,3.842,0,1,0,3.112,5.211,2.157,2.157,0,0,0,.934-.235c.73-.325.586.242,1.622.242a2.051,2.051,0,0,0,.852-.192,4.521,4.521,0,0,0,2.16-3.217,5.15,5.15,0,0,0-.751-4.1A2.155,2.155,0,0,0,22.316,14.1Zm-3.944,7.676,0,0s0,0,0,0a2.859,2.859,0,1,1,0-.008Zm5.416-2.923a3.569,3.569,0,0,1-1.6,2.506c-.978.45-1.03-.694-2.468-.052a2.385,2.385,0,0,1-.281.108,3.842,3.842,0,0,0-2.388-3.929,3.2,3.2,0,0,1,.745-2.033c.579-.583,1.434-.445,2.1.437a.709.709,0,0,0,1.135,0c.7-.927,1.621-1.03,2.209-.313A4.2,4.2,0,0,1,23.788,18.851Z" transform="translate(-10.134 -6.278)" fill="#6a8330"/>
        <path id="Path_7745" data-name="Path 7745" d="M18.642,27.664,16.75,29.556l-.835-.835a.5.5,0,0,0-.7.7L16.4,30.608a.5.5,0,0,0,.7,0l2.243-2.243a.5.5,0,0,0-.7-.7Z" transform="translate(-11.794 -14.368)" fill="#6a8330"/>
      </g>
    </g>
  </g>
</svg>
