<svg xmlns="http://www.w3.org/2000/svg" width="45.926" height="40" viewBox="0 0 45.926 40">
  <g id="ab41f1ce7f78ce54c1061575dbfa5824" transform="translate(-1 -5)">
    <path id="Path_7747" data-name="Path 7747" d="M33.711,6a12.351,12.351,0,0,0-9.489,4.445A12.351,12.351,0,0,0,14.733,6,12.733,12.733,0,0,0,2,18.733H2a13.981,13.981,0,0,0,1.094,5.422h0A35.6,35.6,0,0,0,16.074,39.9V29.718a1.572,1.572,0,0,0-.593-1.227,8.3,8.3,0,0,1-3.111-6.479,13.054,13.054,0,0,1,1.054-5.139,4.493,4.493,0,0,1,8.261,0,13.055,13.055,0,0,1,1.055,5.14,8.3,8.3,0,0,1-3.111,6.479,1.572,1.572,0,0,0-.593,1.227V41.69l5.185,2.828,4.444-2.424V29.7l-2.038-2.547a4.227,4.227,0,0,1-.925-2.639V23.037h8.889v1.481a4.226,4.226,0,0,1-.925,2.638L31.63,29.7V40.379a35.587,35.587,0,0,0,13.72-16.222h0a13.982,13.982,0,0,0,1.095-5.424h0A12.733,12.733,0,0,0,33.711,6Z" transform="translate(-0.259 -0.259)" fill="#f2f1eb"/>
    <path id="Path_7748" data-name="Path 7748" d="M33.452,5a13.052,13.052,0,0,0-9.489,4.074A13.052,13.052,0,0,0,14.474,5,13.49,13.49,0,0,0,1,18.474a14.632,14.632,0,0,0,1.153,5.711,36.474,36.474,0,0,0,16.087,17.8l5.368,2.927a.741.741,0,0,0,.71,0l5.368-2.927a36.478,36.478,0,0,0,16.087-17.8,14.632,14.632,0,0,0,1.153-5.711A13.49,13.49,0,0,0,33.452,5ZM15.688,27.653a7.52,7.52,0,0,1-2.836-5.9,12.239,12.239,0,0,1,.995-4.848,3.753,3.753,0,0,1,6.9,0,12.239,12.239,0,0,1,.995,4.848,7.521,7.521,0,0,1-2.837,5.9,2.3,2.3,0,0,0-.867,1.8v10.7c-.5-.3-1-.6-1.481-.915V29.458a2.3,2.3,0,0,0-.867-1.805Zm13.46,12.93V29.444a.741.741,0,0,0-.162-.463l-2.038-2.547a3.5,3.5,0,0,1-.763-2.176v-.741h7.407v.741a3.5,3.5,0,0,1-.763,2.176l-2.038,2.547a.741.741,0,0,0-.162.463V39.711C30.143,40.012,29.65,40.305,29.148,40.583ZM44.407,23.61a35,35,0,0,1-12.3,15.128V29.7l1.875-2.344a4.978,4.978,0,0,0,1.088-3.1V13.889H33.592v8.148H32.111V13.889H30.63v8.148H29.148V13.889H27.667v8.148H26.185V13.889H24.7v10.37a4.978,4.978,0,0,0,1.088,3.1L27.667,29.7V41.4l-3.7,2.02-4.444-2.424V29.458a.823.823,0,0,1,.311-.647,9,9,0,0,0,3.393-7.058,13.7,13.7,0,0,0-1.111-5.432,5.234,5.234,0,0,0-9.622,0,13.7,13.7,0,0,0-1.119,5.432,8.993,8.993,0,0,0,3.393,7.058.826.826,0,0,1,.311.648v8.756A35,35,0,0,1,3.519,23.61a13.164,13.164,0,0,1-1.037-5.136A12.007,12.007,0,0,1,14.474,6.481a11.581,11.581,0,0,1,8.92,4.178.765.765,0,0,0,1.138,0,11.581,11.581,0,0,1,8.92-4.178A12.007,12.007,0,0,1,45.444,18.474a13.164,13.164,0,0,1-1.037,5.136Z" fill="#6a8330"/>
  </g>
</svg>
