<svg xmlns="http://www.w3.org/2000/svg" width="40.625" height="40.625" viewBox="0 0 40.625 40.625">
  <g id="Group_680" data-name="Group 680" transform="translate(-8415.375 -487.375)">
    <g id="_6e6d7e1d4286892054c2fe0155438443" data-name="6e6d7e1d4286892054c2fe0155438443" transform="translate(8421.142 493.999)">
      <path id="Path_7749" data-name="Path 7749" d="M53.968,31H44.935A1.935,1.935,0,0,0,43,32.935V49.71a1.935,1.935,0,0,0,1.935,1.935h9.032A1.935,1.935,0,0,0,55.9,49.71V32.935A1.935,1.935,0,0,0,53.968,31Zm.645,18.71a.645.645,0,0,1-.645.645H44.935a.645.645,0,0,1-.645-.645V32.935a.645.645,0,0,1,.645-.645h1.613l.467.934a.645.645,0,0,0,.577.357h3.719a.645.645,0,0,0,.577-.357l.467-.934h1.613a.645.645,0,0,1,.645.645Z" transform="translate(-21.045 -17.644)" fill="#6a8330"/>
      <path id="Path_7750" data-name="Path 7750" d="M52.229,45.937l-.51,1.021-.867-3.469a.645.645,0,0,0-1.2-.132l-1.112,2.224H47v1.29h1.935a.645.645,0,0,0,.581-.357l.51-1.021.867,3.469a.645.645,0,0,0,1.2.132l1.108-2.224h1.537v-1.29H52.806a.645.645,0,0,0-.577.357Z" transform="translate(-22.465 -21.902)" fill="#6a8330"/>
      <rect id="Rectangle_631" data-name="Rectangle 631" width="2" height="1" transform="translate(15.184 29.327)" fill="#6a8330"/>
      <rect id="Rectangle_632" data-name="Rectangle 632" width="1" height="1" transform="translate(13.184 29.327)" fill="#6a8330"/>
      <rect id="Rectangle_633" data-name="Rectangle 633" width="2" height="1" transform="translate(0.184 26.327)" fill="#6a8330"/>
      <rect id="Rectangle_634" data-name="Rectangle 634" width="2" height="1" transform="translate(10.184 29.327)" fill="#6a8330"/>
      <rect id="Rectangle_635" data-name="Rectangle 635" width="2" height="1" transform="translate(18.184 29.327)" fill="#6a8330"/>
      <rect id="Rectangle_636" data-name="Rectangle 636" width="2" height="1" transform="translate(0.184 21.327)" fill="#6a8330"/>
      <rect id="Rectangle_637" data-name="Rectangle 637" width="2" height="1" transform="translate(2.184 29.327)" fill="#6a8330"/>
      <rect id="Rectangle_638" data-name="Rectangle 638" width="2" height="1" transform="translate(5.184 29.327)" fill="#6a8330"/>
      <rect id="Rectangle_639" data-name="Rectangle 639" width="2" height="1" transform="translate(0.184 24.327)" fill="#6a8330"/>
      <rect id="Rectangle_640" data-name="Rectangle 640" width="1" height="1" transform="translate(8.184 29.327)" fill="#6a8330"/>
      <rect id="Rectangle_641" data-name="Rectangle 641" width="2" height="1" transform="translate(0.184 29.327)" fill="#6a8330"/>
      <rect id="Rectangle_642" data-name="Rectangle 642" width="1" height="1" transform="translate(30.184 2.327)" fill="#6a8330"/>
      <rect id="Rectangle_643" data-name="Rectangle 643" width="1" height="1" transform="translate(30.184 7.327)" fill="#6a8330"/>
      <rect id="Rectangle_644" data-name="Rectangle 644" width="1" height="1" transform="translate(22.184 0.327)" fill="#6a8330"/>
      <rect id="Rectangle_645" data-name="Rectangle 645" width="1" height="1" transform="translate(30.184 5.327)" fill="#6a8330"/>
      <rect id="Rectangle_646" data-name="Rectangle 646" width="1" height="1" transform="translate(30.184 10.327)" fill="#6a8330"/>
      <rect id="Rectangle_647" data-name="Rectangle 647" width="1" height="1" transform="translate(25.184 0.327)" fill="#6a8330"/>
      <rect id="Rectangle_648" data-name="Rectangle 648" width="1" height="1" transform="translate(27.184 0.327)" fill="#6a8330"/>
      <rect id="Rectangle_649" data-name="Rectangle 649" width="1" height="1" transform="translate(30.184 0.327)" fill="#6a8330"/>
    </g>
    <path id="Path_7751" data-name="Path 7751" d="M13.9,1a12.9,12.9,0,1,0,12.9,12.9A12.9,12.9,0,0,0,13.9,1ZM21,10.7a.3.3,0,0,1-.3.3H16.484v4.516l.619,7.419a.3.3,0,0,1-.295.323H15.441a.3.3,0,0,1-.291-.243L13.9,16.161l-1.246,6.854a.3.3,0,0,1-.291.243H11a.3.3,0,0,1-.295-.323l.617-7.419V11H7.1a.3.3,0,0,1-.3-.3V9.326a.3.3,0,0,1,.258-.294l4.105-.516a13.018,13.018,0,0,1,1.6-.1H13.9a1.935,1.935,0,1,1,1.935-1.935A1.935,1.935,0,0,1,13.9,8.417h1.132a13.018,13.018,0,0,1,1.6.1l4.105.516A.3.3,0,0,1,21,9.326Z" transform="translate(8415 487)" fill="none" stroke="#6a8330" stroke-width="1.25"/>
  </g>
</svg>
