<svg xmlns="http://www.w3.org/2000/svg" width="48.673" height="36.527" viewBox="0 0 48.673 36.527">
  <g id="_154d5c688b0363f4be72fa95a97ed01f" data-name="154d5c688b0363f4be72fa95a97ed01f" transform="translate(0 -73.9)">
    <g id="Path_7731" data-name="Path 7731" transform="translate(-93.66)" fill="none">
      <path d="M107.386,82.1a4.1,4.1,0,1,1,3.886-4.1.761.761,0,1,1-1.52,0,2.369,2.369,0,1,0-2.366,2.5.8.8,0,0,1,0,1.6Z" stroke="none"/>
      <path d="M 107.3859405517578 82.09713745117188 C 105.2386932373047 82.09713745117188 103.4999771118164 80.25328826904297 103.4999771118164 77.99854278564453 C 103.4999771118164 75.73382568359375 105.248176574707 73.89999389648438 107.3859405517578 73.89999389648438 C 109.5236663818359 73.89999389648438 111.271842956543 75.74385833740234 111.271842956543 77.99854278564453 C 111.271842956543 78.43949890136719 110.9298095703125 78.80024719238281 110.5117492675781 78.80024719238281 C 110.0937194824219 78.80024719238281 109.7516784667969 78.43949890136719 109.7516784667969 77.99854278564453 C 109.7516784667969 76.61567687988281 108.6875762939453 75.50334930419922 107.3859405517578 75.50334930419922 C 106.0842666625977 75.50334930419922 105.0201568603516 76.62570190429688 105.0201568603516 77.99854278564453 C 105.0201568603516 79.38145446777344 106.0842666625977 80.49378204345703 107.3859405517578 80.49378204345703 C 107.8039703369141 80.49378204345703 108.1460113525391 80.85453796386719 108.1460113525391 81.29547882080078 C 108.1460113525391 81.73637390136719 107.8039703369141 82.09713745117188 107.3859405517578 82.09713745117188 Z" stroke="none" fill="#f2f1eb"/>
    </g>
    <g id="Path_7732" data-name="Path 7732" transform="translate(-157.005)" fill="none">
      <path d="M177.386,82.1a4.1,4.1,0,1,1,3.886-4.1.761.761,0,1,1-1.52,0,2.369,2.369,0,1,0-2.366,2.5.8.8,0,0,1,0,1.6Z" stroke="none"/>
      <path d="M 177.3859405517578 82.09713745117188 C 175.2387237548828 82.09713745117188 173.5000152587891 80.25328826904297 173.5000152587891 77.99854278564453 C 173.5000152587891 75.73382568359375 175.2481842041016 73.89999389648438 177.3859405517578 73.89999389648438 C 179.5236968994141 73.89999389648438 181.2718658447266 75.74385833740234 181.2718658447266 77.99854278564453 C 181.2718658447266 78.43949890136719 180.9297943115234 78.80024719238281 180.5117950439453 78.80024719238281 C 180.0937347412109 78.80024719238281 179.7516937255859 78.43949890136719 179.7516937255859 77.99854278564453 C 179.7516937255859 76.61567687988281 178.6876068115234 75.50334930419922 177.3859405517578 75.50334930419922 C 176.0843048095703 75.50334930419922 175.0201873779297 76.62570190429688 175.0201873779297 77.99854278564453 C 175.0201873779297 79.38145446777344 176.0843048095703 80.49378204345703 177.3859405517578 80.49378204345703 C 177.8039703369141 80.49378204345703 178.1460723876953 80.85453796386719 178.1460723876953 81.29547882080078 C 178.1460723876953 81.73637390136719 177.8039703369141 82.09713745117188 177.3859405517578 82.09713745117188 Z" stroke="none" fill="#f2f1eb"/>
    </g>
    <g id="Path_7733" data-name="Path 7733" transform="translate(-220.35)" fill="none">
      <path d="M247.386,82.1a4.1,4.1,0,1,1,3.886-4.1.761.761,0,1,1-1.52,0,2.369,2.369,0,1,0-2.366,2.5.8.8,0,0,1,0,1.6Z" stroke="none"/>
      <path d="M 247.3859558105469 82.09713745117188 C 245.2387390136719 82.09713745117188 243.5000305175781 80.25328826904297 243.5000305175781 77.99854278564453 C 243.5000305175781 75.73382568359375 245.2481994628906 73.89999389648438 247.3859558105469 73.89999389648438 C 249.5237121582031 73.89999389648438 251.2718811035156 75.74385833740234 251.2718811035156 77.99854278564453 C 251.2718811035156 78.43949890136719 250.9298400878906 78.80024719238281 250.5118103027344 78.80024719238281 C 250.09375 78.80024719238281 249.751708984375 78.43949890136719 249.751708984375 77.99854278564453 C 249.751708984375 76.61567687988281 248.6876525878906 75.50334930419922 247.3859558105469 75.50334930419922 C 246.0843200683594 75.50334930419922 245.0202026367188 76.62570190429688 245.0202026367188 77.99854278564453 C 245.0202026367188 79.38145446777344 246.0843200683594 80.49378204345703 247.3859558105469 80.49378204345703 C 247.8039855957031 80.49378204345703 248.1460571289062 80.85453796386719 248.1460571289062 81.29547882080078 C 248.1460571289062 81.73637390136719 247.8039855957031 82.09713745117188 247.3859558105469 82.09713745117188 Z" stroke="none" fill="#f2f1eb"/>
    </g>
    <g id="Path_7734" data-name="Path 7734" transform="translate(-15.375 -29.603)" fill="none">
      <path d="M43.146,140.03H17.75a.711.711,0,0,1-.58-.291.843.843,0,0,1-.171-.652l5.264-31.626a.777.777,0,0,1,.751-.662h25.4a.711.711,0,0,1,.58.291.843.843,0,0,1,.171.652L43.9,139.368A.777.777,0,0,1,43.146,140.03Z" stroke="none"/>
      <path d="M 42.93961334228516 139.0298461914062 L 48.13733673095703 107.8000259399414 L 23.22062492370605 107.8000259399414 L 18.02290153503418 139.0298461914062 L 42.93961334228516 139.0298461914062 M 43.14648056030273 140.0298461914062 L 17.75016212463379 140.0298461914062 C 17.52213287353516 140.0298461914062 17.31311225891113 139.9295654296875 17.17060279846191 139.7390747070312 C 17.02807235717773 139.5586242675781 16.96157264709473 139.3179473876953 16.99958229064941 139.0873107910156 L 22.26316261291504 107.4617919921875 C 22.32967185974121 107.0807647705078 22.64320182800293 106.8000259399414 23.01374244689941 106.8000259399414 L 48.41006088256836 106.8000259399414 C 48.63809204101562 106.8000259399414 48.84711074829102 106.9002685546875 48.98963165283203 107.0907897949219 C 49.13214111328125 107.2712860107422 49.19865417480469 107.5119323730469 49.16065216064453 107.7425384521484 L 43.89707183837891 139.3680877685547 C 43.83055114746094 139.7491302490234 43.51702117919922 140.0298461914062 43.14648056030273 140.0298461914062 Z" stroke="none" fill="#f2f1eb"/>
    </g>
    <g id="Path_7735" data-name="Path 7735" transform="translate(-50.398 -29.484)" fill="none">
      <path d="M60.868,123.536H57.714a.711.711,0,0,1-.58-.291.843.843,0,0,1-.171-.652l.656-3.931a.777.777,0,0,1,.751-.662h3.154a.711.711,0,0,1,.58.291.843.843,0,0,1,.171.652l-.656,3.931A.777.777,0,0,1,60.868,123.536Zm5.739,0H63.452a.711.711,0,0,1-.58-.291.843.843,0,0,1-.171-.652l.656-3.931a.777.777,0,0,1,.751-.662h3.154a.711.711,0,0,1,.58.291.843.843,0,0,1,.171.652l-.656,3.931A.777.777,0,0,1,66.607,123.536Zm5.739,0H69.191a.711.711,0,0,1-.58-.291.843.843,0,0,1-.171-.652l.656-3.931a.777.777,0,0,1,.751-.662H73a.711.711,0,0,1,.58.291.843.843,0,0,1,.171.652l-.656,3.931A.777.777,0,0,1,72.345,123.536Zm5.739,0H74.93a.711.711,0,0,1-.58-.291.843.843,0,0,1-.171-.652l.656-3.931a.777.777,0,0,1,.751-.662H78.74a.711.711,0,0,1,.58.291.843.843,0,0,1,.171.652l-.656,3.931A.777.777,0,0,1,78.084,123.536ZM59.6,132.089H56.45a.711.711,0,0,1-.58-.291.843.843,0,0,1-.171-.652l.656-3.931a.777.777,0,0,1,.751-.662H60.26a.711.711,0,0,1,.58.291.843.843,0,0,1,.171.652l-.656,3.931A.777.777,0,0,1,59.6,132.089Zm5.739,0H62.189a.711.711,0,0,1-.58-.291.843.843,0,0,1-.171-.652l.656-3.931a.777.777,0,0,1,.751-.662H66a.711.711,0,0,1,.58.291.843.843,0,0,1,.171.652l-.656,3.931A.777.777,0,0,1,65.343,132.089Zm5.739,0H67.927a.711.711,0,0,1-.58-.291.843.843,0,0,1-.171-.652l.656-3.931a.777.777,0,0,1,.751-.662h3.154a.711.711,0,0,1,.58.291.843.843,0,0,1,.171.652l-.656,3.931A.777.777,0,0,1,71.082,132.089Zm5.739,0H73.666a.711.711,0,0,1-.58-.291.843.843,0,0,1-.171-.652l.656-3.931a.777.777,0,0,1,.751-.662h3.154a.711.711,0,0,1,.58.291.843.843,0,0,1,.171.652l-.656,3.931A.777.777,0,0,1,76.82,132.089Zm1.349,7.821a.743.743,0,0,1-.57-.271c-.276-.331,1.115-.832,1.428-1.133l6.16-4.48H79.274l-.055-.694h5.693a.764.764,0,0,1,.713.511.838.838,0,0,1-.2.882L78.683,139.7A.754.754,0,0,1,78.17,139.91Zm8.382-14.245L83.58,107.608c-.076-.441-.708-.847-.29-.928a.767.767,0,0,1,.884.652l2.971,18.057C87.221,125.831,86.618,126.056,86.551,125.665ZM56.033,115.438l.322-2.134H83.1l-.425,2.134Z" stroke="none"/>
      <path d="M 76.61360931396484 131.0893249511719 L 77.20318603515625 127.5543670654297 L 74.52847290039062 127.5543670654297 L 73.93889617919922 131.0893249511719 L 76.61360931396484 131.0893249511719 M 70.87497711181641 131.0893249511719 L 71.46455383300781 127.5543670654297 L 68.78983306884766 127.5543670654297 L 68.20024108886719 131.0893249511719 L 70.87497711181641 131.0893249511719 M 65.13632965087891 131.0893249511719 L 65.72589111328125 127.5543670654297 L 63.05119323730469 127.5543670654297 L 62.46161270141602 131.0893249511719 L 65.13632965087891 131.0893249511719 M 59.39768981933594 131.0893249511719 L 59.98726272583008 127.5543670654297 L 57.31255340576172 127.5543670654297 L 56.72297286987305 131.0893249511719 L 59.39768981933594 131.0893249511719 M 77.87725830078125 122.5362091064453 L 78.46683502197266 119.001220703125 L 75.79212188720703 119.001220703125 L 75.2025146484375 122.5362091064453 L 77.87725830078125 122.5362091064453 M 72.13861846923828 122.5362091064453 L 72.72820281982422 119.001220703125 L 70.05347442626953 119.001220703125 L 69.46388244628906 122.5362091064453 L 72.13861846923828 122.5362091064453 M 66.39997863769531 122.5362091064453 L 66.98957061767578 119.001220703125 L 64.31483459472656 119.001220703125 L 63.72524642944336 122.5362091064453 L 66.39997863769531 122.5362091064453 M 60.66132736206055 122.5362091064453 L 61.25091552734375 119.001220703125 L 58.57620239257812 119.001220703125 L 57.98661804199219 122.5362091064453 L 60.66132736206055 122.5362091064453 M 81.85263061523438 114.4375457763672 L 81.87933349609375 114.3034973144531 L 57.21559524536133 114.3034973144531 L 57.19536590576172 114.4375457763672 L 81.85263061523438 114.4375457763672 M 78.16958618164062 139.9104614257812 C 77.96055603027344 139.9104614257812 77.75154113769531 139.8202209472656 77.59949493408203 139.6397247314453 C 77.32398986816406 139.3088226318359 78.71412658691406 138.8074951171875 79.02767944335938 138.5066833496094 L 85.18807983398438 134.0269775390625 L 79.27369689941406 134.0269775390625 L 79.21855163574219 133.3326873779297 L 84.91112518310547 133.3326873779297 C 85.22465515136719 133.3326873779297 85.50968933105469 133.5332336425781 85.62371063232422 133.8440704345703 C 85.73773193359375 134.1549224853516 85.65219116210938 134.505859375 85.42417907714844 134.7264556884766 L 78.68264770507812 139.6998748779297 C 78.53060913085938 139.8402862548828 78.35009765625 139.9104614257812 78.16958618164062 139.9104614257812 Z M 76.82044219970703 132.0893249511719 L 73.66609191894531 132.0893249511719 C 73.43807220458984 132.0893249511719 73.22904968261719 131.9890594482422 73.08650207519531 131.7985382080078 C 72.94401550292969 131.6180572509766 72.87749481201172 131.3773956298828 72.91549682617188 131.1467742919922 L 73.57107543945312 127.2161407470703 C 73.63756561279297 126.8351287841797 73.95111083984375 126.5543670654297 74.32167053222656 126.5543670654297 L 77.47599792480469 126.5543670654297 C 77.70402526855469 126.5543670654297 77.91305541992188 126.6546173095703 78.05556488037109 126.8451385498047 C 78.19808959960938 127.025634765625 78.26461791992188 127.2662963867188 78.22657775878906 127.4969177246094 L 77.57102203369141 131.4275360107422 C 77.5045166015625 131.8085632324219 77.19097900390625 132.0893249511719 76.82044219970703 132.0893249511719 Z M 71.08180236816406 132.0893249511719 L 67.92745208740234 132.0893249511719 C 67.69941711425781 132.0893249511719 67.49038696289062 131.9890594482422 67.34786987304688 131.7985382080078 C 67.20534515380859 131.6180572509766 67.13883972167969 131.3773956298828 67.17684936523438 131.1467742919922 L 67.83243560791016 127.2161407470703 C 67.89894104003906 126.8351287841797 68.21245574951172 126.5543670654297 68.5830078125 126.5543670654297 L 71.73736572265625 126.5543670654297 C 71.96538543701172 126.5543670654297 72.1744384765625 126.6546173095703 72.31694030761719 126.8451385498047 C 72.45945739746094 127.025634765625 72.52595520019531 127.2662963867188 72.48794555664062 127.4969177246094 L 71.83238220214844 131.4275360107422 C 71.76586151123047 131.8085632324219 71.45236206054688 132.0893249511719 71.08180236816406 132.0893249511719 Z M 65.3431396484375 132.0893249511719 L 62.18879699707031 132.0893249511719 C 61.96077728271484 132.0893249511719 61.75174713134766 131.9890594482422 61.60923767089844 131.7985382080078 C 61.46671676635742 131.6180572509766 61.40020751953125 131.3773956298828 61.43821716308594 131.1467742919922 L 62.09378814697266 127.2161407470703 C 62.16029739379883 126.8351287841797 62.47382736206055 126.5543670654297 62.84436798095703 126.5543670654297 L 65.99874114990234 126.5543670654297 C 66.22674560546875 126.5543670654297 66.43576049804688 126.6546173095703 66.57827758789062 126.8451385498047 C 66.72080993652344 127.025634765625 66.78730773925781 127.2662963867188 66.74927520751953 127.4969177246094 L 66.09374237060547 131.4275360107422 C 66.0272216796875 131.8085632324219 65.71369171142578 132.0893249511719 65.3431396484375 132.0893249511719 Z M 59.60450744628906 132.0893249511719 L 56.45015716552734 132.0893249511719 C 56.22213745117188 132.0893249511719 56.01310729980469 131.9890594482422 55.87059783935547 131.7985382080078 C 55.72807693481445 131.6180572509766 55.66156768798828 131.3773956298828 55.69957733154297 131.1467742919922 L 56.35515975952148 127.2161407470703 C 56.42164993286133 126.8351287841797 56.73519897460938 126.5543670654297 57.10572814941406 126.5543670654297 L 60.26007843017578 126.5543670654297 C 60.48810958862305 126.5543670654297 60.69712829589844 126.6546173095703 60.83964920043945 126.8451385498047 C 60.98217010498047 127.025634765625 61.04866790771484 127.2662963867188 61.01065826416016 127.4969177246094 L 60.35508728027344 131.4275360107422 C 60.28859710693359 131.8085632324219 59.97506713867188 132.0893249511719 59.60450744628906 132.0893249511719 Z M 86.77413940429688 125.8665771484375 C 86.66812896728516 125.8665771484375 86.57505798339844 125.8056716918945 86.55117797851562 125.6652679443359 L 83.58023071289062 107.608154296875 C 83.50421142578125 107.1669464111328 82.87261199951172 106.7608489990234 83.2906494140625 106.6806411743164 C 83.69918823242188 106.600471496582 84.09824371337891 106.8912124633789 84.17425537109375 107.3323974609375 L 87.14521789550781 125.3895263671875 C 87.19393157958984 125.6723251342773 86.96342468261719 125.8665771484375 86.77413940429688 125.8665771484375 Z M 78.08409118652344 123.5362091064453 L 74.92971801757812 123.5362091064453 C 74.70169067382812 123.5362091064453 74.49269104003906 123.435920715332 74.35015869140625 123.2454071044922 C 74.2076416015625 123.0649337768555 74.14112854003906 122.8242797851562 74.17911529541016 122.5936584472656 L 74.834716796875 118.6630249023438 C 74.90122985839844 118.2820205688477 75.21476745605469 118.001220703125 75.58528137207031 118.001220703125 L 78.73963165283203 118.001220703125 C 78.96768188476562 118.001220703125 79.17669677734375 118.1014938354492 79.31922149658203 118.2920303344727 C 79.46173095703125 118.4725341796875 79.52825164794922 118.7131652832031 79.49021911621094 118.9437866210938 L 78.83467102050781 122.8744201660156 C 78.76813507080078 123.2554702758789 78.45460510253906 123.5362091064453 78.08409118652344 123.5362091064453 Z M 72.34542846679688 123.5362091064453 L 69.19108581542969 123.5362091064453 C 68.96305847167969 123.5362091064453 68.7540283203125 123.435920715332 68.61152648925781 123.2454071044922 C 68.46900939941406 123.0649337768555 68.40249633789062 122.8242797851562 68.44049072265625 122.5936584472656 L 69.0960693359375 118.6630249023438 C 69.16258239746094 118.2820205688477 69.47611999511719 118.001220703125 69.84664916992188 118.001220703125 L 73.00100708007812 118.001220703125 C 73.22904968261719 118.001220703125 73.43807220458984 118.1014938354492 73.58056640625 118.2920303344727 C 73.72309875488281 118.4725341796875 73.78958129882812 118.7131652832031 73.7515869140625 118.9437866210938 L 73.09603118896484 122.8744201660156 C 73.02952575683594 123.2554702758789 72.71596527099609 123.5362091064453 72.34542846679688 123.5362091064453 Z M 66.60679626464844 123.5362091064453 L 63.45243835449219 123.5362091064453 C 63.22441864013672 123.5362091064453 63.01538848876953 123.435920715332 62.87287902832031 123.2454071044922 C 62.73036956787109 123.0649337768555 62.66384887695312 122.8242797851562 62.70184707641602 122.5936584472656 L 63.35742950439453 118.6630249023438 C 63.4239387512207 118.2820205688477 63.73746871948242 118.001220703125 64.10800170898438 118.001220703125 L 67.26235961914062 118.001220703125 C 67.49038696289062 118.001220703125 67.69941711425781 118.1014938354492 67.8419189453125 118.2920303344727 C 67.98443603515625 118.4725341796875 68.05094909667969 118.7131652832031 68.01296234130859 118.9437866210938 L 67.35737609863281 122.8744201660156 C 67.29085540771484 123.2554702758789 66.97732543945312 123.5362091064453 66.60679626464844 123.5362091064453 Z M 60.86814880371094 123.5362091064453 L 57.71379852294922 123.5362091064453 C 57.48577880859375 123.5362091064453 57.27674865722656 123.435920715332 57.13424682617188 123.2454071044922 C 56.99172973632812 123.0649337768555 56.92522048950195 122.8242797851562 56.96321868896484 122.5936584472656 L 57.61879730224609 118.6630249023438 C 57.68531036376953 118.2820205688477 57.99882888793945 118.001220703125 58.36937713623047 118.001220703125 L 61.52372741699219 118.001220703125 C 61.75174713134766 118.001220703125 61.96077728271484 118.1014938354492 62.10328674316406 118.2920303344727 C 62.24580001831055 118.4725341796875 62.31230926513672 118.7131652832031 62.27430725097656 118.9437866210938 L 61.61872863769531 122.8744201660156 C 61.55223846435547 123.2554702758789 61.23869705200195 123.5362091064453 60.86814880371094 123.5362091064453 Z M 82.67308044433594 115.4375457763672 L 56.03315734863281 115.4375457763672 L 56.35515975952148 113.3034973144531 L 83.09817504882812 113.3034973144531 L 82.67308044433594 115.4375457763672 Z" stroke="none" fill="#f2f1eb"/>
    </g>
    <g id="Path_7736" data-name="Path 7736" transform="translate(0 -312.435)" fill="none">
      <path d="M47.912,422.841H.761c-.418,0-.761-.189-.761-.421S.342,422,.761,422H47.912c.418,0,.761.189.761.421S48.33,422.841,47.912,422.841Z" stroke="none"/>
      <path d="M 47.91208267211914 422.8414306640625 L 0.7605141997337341 422.8414306640625 C 0.3422341644763947 422.8414306640625 4.174194145889487e-06 422.652099609375 4.174194145889487e-06 422.4207153320312 C 4.174194145889487e-06 422.1893310546875 0.3422341644763947 422 0.7605141997337341 422 L 47.91208267211914 422 C 48.33035278320312 422 48.6725959777832 422.1893310546875 48.6725959777832 422.4207153320312 C 48.6725959777832 422.652099609375 48.33035278320312 422.8414306640625 47.91208267211914 422.8414306640625 Z" stroke="none" fill="#f2f1eb"/>
    </g>
    <g id="Group_677" data-name="Group 677" transform="translate(33.254 94.979)">
      <g id="Path_7737" data-name="Path 7737" transform="translate(-334.782 -276.328)" fill="none">
        <path d="M337.516,277.136a2.432,2.432,0,0,0-.7.1,2.911,2.911,0,0,0-1.938,3.537l1.815,7.135a2.873,2.873,0,0,0,1.273,1.754,2.58,2.58,0,0,0,2.081.291,2.219,2.219,0,0,0,.3-.11.684.684,0,0,1,.561,0c.1.04.209.08.3.11a2.726,2.726,0,0,0,3.354-2.044l1.815-7.135a2.993,2.993,0,0,0-.276-2.195,2.664,2.664,0,0,0-4.8.11.747.747,0,0,1-.674.431.765.765,0,0,1-.675-.431A2.731,2.731,0,0,0,337.516,277.136Z" stroke="none"/>
        <path d="M 343.7530517578125 278.12841796875 C 343.113037109375 278.12841796875 342.5049133300781 278.5222473144531 342.2046813964844 279.1299438476562 C 341.9046020507812 279.7404479980469 341.3022766113281 280.1196899414062 340.6327209472656 280.1196899414062 C 339.9747009277344 280.1196899414062 339.3749389648438 279.7456970214844 339.0675048828125 279.1436462402344 L 339.0596618652344 279.1279296875 C 338.7605285644531 278.5158386230469 338.1691284179688 278.1356201171875 337.5162658691406 278.1356201171875 C 337.36669921875 278.1356201171875 337.2333984375 278.1544189453125 337.0967712402344 278.19482421875 L 337.0836181640625 278.1986083984375 C 336.1412658691406 278.4631958007812 335.5852966308594 279.5077209472656 335.8441772460938 280.5267639160156 L 337.6584167480469 287.659912109375 C 337.7850341796875 288.1540222167969 338.0775146484375 288.5614318847656 338.4861755371094 288.8096313476562 C 338.7491760253906 288.9710998535156 339.0313415527344 289.052978515625 339.3248596191406 289.052978515625 C 339.46875 289.052978515625 339.6151733398438 289.0328979492188 339.7602844238281 288.9932250976562 L 339.7821655273438 288.9863586425781 C 339.8347473144531 288.969970703125 339.8890991210938 288.9530029296875 339.9150390625 288.9405822753906 L 339.94189453125 288.9281616210938 C 340.1603393554688 288.8312072753906 340.39111328125 288.7820434570312 340.6279296875 288.7820434570312 C 340.8543701171875 288.7820434570312 341.0753173828125 288.8269958496094 341.2851867675781 288.9157409667969 C 341.3643798828125 288.9460754394531 341.4390258789062 288.9744873046875 341.4985046386719 288.9940185546875 C 341.6381530761719 289.03173828125 341.7806091308594 289.0508728027344 341.9222717285156 289.0508728027344 C 342.7018432617188 289.0508728027344 343.3903503417969 288.4803161621094 343.5969848632812 287.6616516113281 L 345.4121704101562 280.5250549316406 C 345.5400085449219 280.0261840820312 345.4752197265625 279.5065307617188 345.2298278808594 279.0618286132812 C 345.0574035644531 278.7494506835938 344.7355651855469 278.3443603515625 344.1789245605469 278.1878051757812 C 344.0401916503906 278.1483764648438 343.8969116210938 278.12841796875 343.7530517578125 278.12841796875 M 343.7530517578125 277.12841796875 C 343.9854125976562 277.12841796875 344.2203979492188 277.1600341796875 344.4521179199219 277.225830078125 C 345.1647033691406 277.42626953125 345.7347717285156 277.9072265625 346.1053161621094 278.57861328125 C 346.4758605957031 279.2500610351562 346.5708923339844 280.0316772460938 346.3808898925781 280.7732543945312 L 344.5661315917969 287.9081420898438 C 344.1766052246094 289.4513854980469 342.6752624511719 290.3631591796875 341.2122497558594 289.952392578125 C 341.1172180175781 289.92236328125 341.0127868652344 289.8822631835938 340.9081726074219 289.8421630859375 C 340.7276916503906 289.7620239257812 340.5281677246094 289.7620239257812 340.3476257324219 289.8421630859375 C 340.2430725097656 289.892333984375 340.1387023925781 289.92236328125 340.0436096191406 289.952392578125 C 339.3309936523438 290.1528015136719 338.5993957519531 290.0526123046875 337.9629211425781 289.6618041992188 C 337.3357849121094 289.2809448242188 336.8797607421875 288.6497192382812 336.6897277832031 287.9081420898438 L 334.8750305175781 280.7732543945312 C 334.4855041503906 279.239990234375 335.3500366210938 277.6466674804688 336.8132934570312 277.23583984375 C 337.0507507324219 277.1656494140625 337.2788391113281 277.1356201171875 337.5162658691406 277.1356201171875 C 338.5234069824219 277.1356201171875 339.4830627441406 277.716796875 339.9580993652344 278.6888427734375 C 340.0911560058594 278.9494018554688 340.3476257324219 279.1196899414062 340.6327209472656 279.1196899414062 C 340.9176940917969 279.1196899414062 341.1742248535156 278.9594116210938 341.3072204589844 278.6888427734375 C 341.7857971191406 277.7201232910156 342.7469482421875 277.12841796875 343.7530517578125 277.12841796875 Z" stroke="none" fill="#f2f1eb"/>
      </g>
      <g id="Path_7738" data-name="Path 7738" transform="translate(-397.938 -249.569)" fill="none">
        <path d="M402.76,252.965c-.418,0,.537-.361.537-.8V250.37c0-.441.045-.8.463-.8s.481.361.481.8v1.793C404.241,252.6,403.178,252.965,402.76,252.965Zm2,8.046c-.418,0-.759-.181-.76-.512s.823-.259.241-.259c1.131,0,1.292-.3,1.292-1.491,0,.559-.059-.24.231-.244s.559.307.559.748A1.7,1.7,0,0,1,404.76,261.01Z" stroke="none"/>
        <path d="M 403.7600708007812 249.5685119628906 C 404.1781616210938 249.5685119628906 404.2412719726562 249.9292602539062 404.2412719726562 250.3702087402344 L 404.2412719726562 252.162841796875 C 404.2412719726562 252.603759765625 403.1781616210938 252.9645080566406 402.7600708007812 252.9645080566406 C 402.342041015625 252.9645080566406 403.2973022460938 252.603759765625 403.2973022460938 252.162841796875 L 403.2973022460938 250.3702087402344 C 403.2973022460938 249.9292602539062 403.342041015625 249.5685119628906 403.7600708007812 249.5685119628906 Z M 405.7689819335938 258.5039367675781 C 406.0567016601562 258.5039367675781 406.322998046875 258.8137817382812 406.322998046875 259.2522888183594 C 406.3451843261719 260.4122924804688 405.3074035644531 261.0657348632812 404.7600708007812 261.0101318359375 C 404.342041015625 261.0101318359375 404.00146484375 260.8291015625 404 260.4977111816406 C 403.9991760253906 260.3113098144531 404.2597351074219 260.2527160644531 404.3843078613281 260.2371215820312 C 405.3416748046875 260.212158203125 405.5186157226562 259.9156799316406 405.5322875976562 258.8931884765625 C 405.5452880859375 258.7762145996094 405.5960693359375 258.5059814453125 405.76416015625 258.5039672851562 C 405.7657470703125 258.5039672851562 405.7673950195312 258.5039367675781 405.7689819335938 258.5039367675781 Z M 405.533203125 258.7476806640625 C 405.533203125 258.7977600097656 405.5329284667969 258.84619140625 405.5322875976562 258.8931884765625 C 405.5317993164062 258.8975830078125 405.5313720703125 258.9017333984375 405.5309753417969 258.9057006835938 C 405.5321350097656 258.8744506835938 405.533203125 258.8235778808594 405.533203125 258.7476806640625 Z M 405.5309753417969 258.9057006835938 C 405.5287780761719 258.9645080566406 405.5262451171875 258.9539794921875 405.5309753417969 258.9057006835938 Z M 404.444580078125 260.232177734375 C 404.4577026367188 260.232177734375 404.4436950683594 260.23486328125 404.3865356445312 260.2368469238281 C 404.4148254394531 260.2333984375 404.435791015625 260.232177734375 404.444580078125 260.232177734375 Z M 404.3865356445312 260.2368469238281 C 404.3669128417969 260.2391357421875 404.3453063964844 260.238037109375 404.3240356445312 260.2383422851562 C 404.3489379882812 260.2379760742188 404.36962890625 260.2374267578125 404.3865356445312 260.2368469238281 Z M 404.3240356445312 260.2383422851562 C 404.3022155761719 260.2386474609375 404.2771301269531 260.2388610839844 404.2485656738281 260.2388916015625 C 404.2742309570312 260.2388610839844 404.2993774414062 260.2386779785156 404.3240356445312 260.2383422851562 Z M 404.2485656738281 260.2388916015625 C 404.2461547851562 260.2388916015625 404.2436828613281 260.2388916015625 404.2412719726562 260.2388916015625 C 404.2437133789062 260.2388916015625 404.2461853027344 260.2388916015625 404.2485656738281 260.2388916015625 Z" stroke="none" fill="#f2f1eb"/>
      </g>
    </g>
  </g>
</svg>
