<svg xmlns="http://www.w3.org/2000/svg" width="54.777" height="9.299" viewBox="0 0 54.777 9.299">
  <g id="Group_75" data-name="Group 75" transform="translate(-259.907 -3481.003)">
    <g id="Rating" transform="translate(305.5 3481.627)">
      <path id="Path_43" data-name="Path 43" d="M85.488,1290.659l1.327,2.69,2.968.431-2.148,2.094.507,2.956-2.655-1.4-2.655,1.4.507-2.956-2.148-2.094,2.968-.431Z" transform="translate(-81.193 -1290.659)" fill="none" stroke="#80a03c" stroke-width="0.552"/>
    </g>
    <g id="Rating-2" data-name="Rating" transform="translate(260.5 3481.627)">
      <path id="Path_43-2" data-name="Path 43" d="M85.488,1290.659l1.327,2.69,2.968.431-2.148,2.094.507,2.956-2.655-1.4-2.655,1.4.507-2.956-2.148-2.094,2.968-.431Z" transform="translate(-81.193 -1290.659)" fill="#80a03c" stroke="#80a03c" stroke-width="0.552"/>
    </g>
    <g id="Rating-3" data-name="Rating" transform="translate(282.5 3481.627)">
      <path id="Path_43-3" data-name="Path 43" d="M85.488,1290.659l1.327,2.69,2.968.431-2.148,2.094.507,2.956-2.655-1.4-2.655,1.4.507-2.956-2.148-2.094,2.968-.431Z" transform="translate(-81.193 -1290.659)" fill="#80a03c" stroke="#80a03c" stroke-width="0.552"/>
    </g>
    <g id="Rating-4" data-name="Rating" transform="translate(271.5 3481.627)">
      <path id="Path_43-4" data-name="Path 43" d="M85.488,1290.659l1.327,2.69,2.968.431-2.148,2.094.507,2.956-2.655-1.4-2.655,1.4.507-2.956-2.148-2.094,2.968-.431Z" transform="translate(-81.193 -1290.659)" fill="#80a03c" stroke="#80a03c" stroke-width="0.552"/>
    </g>
    <g id="Rating-5" data-name="Rating" transform="translate(293.5 3481.627)">
      <path id="Path_43-5" data-name="Path 43" d="M85.488,1290.659l1.327,2.69,2.968.431-2.148,2.094.507,2.956-2.655-1.4-2.655,1.4.507-2.956-2.148-2.094,2.968-.431Z" transform="translate(-81.193 -1290.659)" fill="#80a03c" stroke="#80a03c" stroke-width="0.552"/>
    </g>
  </g>
</svg>
